<?xml version="1.0" standalone="no"?>
<!DOCTYPE svg PUBLIC "-//W3C//DTD SVG 20010904//EN"
 "http://www.w3.org/TR/2001/REC-SVG-20010904/DTD/svg10.dtd">
<svg version="1.0" xmlns="http://www.w3.org/2000/svg"
 width="512.000000pt" height="512.000000pt" viewBox="0 0 512.000000 512.000000"
 preserveAspectRatio="xMidYMid meet">

<g transform="translate(0.000000,512.000000) scale(0.100000,-0.100000)"
fill="#000000" stroke="none">
<path d="M4639 4435 c-20 -7 -88 -37 -151 -67 -787 -374 -1553 -1146 -2158
-2173 -167 -283 -321 -590 -435 -870 l-62 -150 -35 -3 c-33 -3 -39 2 -144 125
-292 342 -651 652 -979 846 -165 98 -224 121 -295 114 -68 -6 -107 -25 -154
-73 -64 -66 -83 -171 -45 -254 27 -59 63 -96 124 -127 328 -167 694 -475 1021
-858 177 -207 247 -248 456 -268 135 -12 200 0 288 54 107 66 152 137 301 479
331 761 828 1502 1355 2022 354 349 667 569 1071 752 175 79 217 263 88 391
-71 72 -158 93 -246 60z"/>
</g>
</svg>
