<?xml version="1.0" standalone="no"?>
<!DOCTYPE svg PUBLIC "-//W3C//DTD SVG 20010904//EN"
 "http://www.w3.org/TR/2001/REC-SVG-20010904/DTD/svg10.dtd">
<svg version="1.0" xmlns="http://www.w3.org/2000/svg"
 width="512.000000pt" height="512.000000pt" viewBox="0 0 512.000000 512.000000"
 preserveAspectRatio="xMidYMid meet">

<g transform="translate(0.000000,512.000000) scale(0.100000,-0.100000)"
fill="#000000" stroke="none">
<path d="M4157 4479 c-122 -29 -78 12 -1269 -1178 l-1117 -1116 -116 -429
c-64 -235 -114 -430 -112 -432 2 -3 197 47 432 110 l428 114 913 913 c502 502
916 910 920 906 4 -4 7 -36 7 -71 -1 -116 -24 -150 -276 -403 l-221 -223 112
-113 112 -112 221 220 c310 310 358 389 367 610 5 125 -11 212 -53 296 l-26
51 78 81 c140 147 183 289 133 448 -35 114 -97 197 -194 261 -104 67 -230 93
-339 67z m143 -325 c71 -28 108 -111 77 -170 -9 -16 -36 -49 -61 -74 l-46 -45
-92 93 -93 92 50 50 c42 43 79 64 117 69 4 1 26 -6 48 -15z m-345 -424 l89
-91 -902 -902 -902 -902 -122 -32 c-67 -18 -123 -31 -124 -30 -2 1 13 58 32
127 l34 125 898 898 c493 493 899 897 902 897 3 0 45 -41 95 -90z"/>
<path d="M981 2075 c-100 -18 -208 -59 -279 -104 -80 -53 -201 -185 -245 -269
-133 -252 -93 -585 98 -815 93 -113 208 -188 352 -229 l78 -23 1570 0 c1291 0
1580 2 1625 14 83 20 228 93 295 148 84 68 149 153 200 258 56 117 70 177 68
305 -5 337 -214 610 -542 707 -48 14 -125 17 -528 20 l-473 4 0 -160 0 -161
428 0 c456 0 490 -3 584 -51 59 -30 140 -115 171 -179 116 -238 -33 -532 -294
-580 -37 -7 -561 -9 -1560 -8 -1675 3 -1542 -2 -1655 72 -230 153 -235 511 -8
667 86 59 135 72 287 77 l137 4 0 159 0 159 -117 -1 c-65 0 -152 -7 -192 -14z"/>
</g>
</svg>
